<?xml version="1.0" standalone="no"?>
<!DOCTYPE svg PUBLIC "-//W3C//DTD SVG 20010904//EN"
 "http://www.w3.org/TR/2001/REC-SVG-20010904/DTD/svg10.dtd">
<svg version="1.0" xmlns="http://www.w3.org/2000/svg"
 width="240.000000pt" height="240.000000pt" viewBox="0 0 240.000000 240.000000"
 preserveAspectRatio="xMidYMid meet">
<metadata>
Created by potrace 1.14, written by Peter Selinger 2001-2017
</metadata>
<g transform="translate(0.000000,240.000000) scale(0.100000,-0.100000)"
fill="#000000" stroke="none">
<path d="M1120 2160 l0 -40 -120 0 -120 0 0 -40 0 -40 -40 0 -40 0 0 -40 0
-40 -40 0 -40 0 0 -40 0 -40 -40 0 -40 0 0 -40 0 -40 -40 0 -40 0 0 -80 0 -80
-40 0 -40 0 0 -160 0 -160 -40 0 -40 0 0 -40 0 -40 -40 0 -40 0 0 -40 0 -40
80 0 80 0 0 -40 0 -40 -40 0 -40 0 0 -40 0 -40 120 0 120 0 0 -40 0 -40 -40 0
-40 0 0 -40 0 -40 -40 0 -40 0 0 -40 0 -40 120 0 120 0 0 40 0 40 40 0 40 0 0
-40 0 -40 40 0 40 0 0 -280 0 -280 80 0 80 0 0 40 0 40 40 0 40 0 0 40 0 40
40 0 40 0 0 40 0 40 40 0 40 0 0 -40 0 -40 40 0 40 0 0 -40 0 -40 40 0 40 0 0
-40 0 -40 80 0 80 0 0 320 0 320 120 0 120 0 0 40 0 40 -40 0 c-33 0 -40 3
-40 20 0 19 7 20 120 20 l120 0 0 40 0 40 -40 0 -40 0 0 60 0 60 -40 0 -40 0
0 40 0 40 40 0 40 0 0 160 0 160 -40 0 -40 0 0 120 0 120 -40 0 -40 0 0 40 0
40 -40 0 -40 0 0 40 0 40 -40 0 -40 0 0 40 0 40 -80 0 -80 0 0 40 0 40 -80 0
-80 0 0 40 0 40 -80 0 -80 0 0 -40z"/>
</g>
</svg>
